<?xml version="1.0" encoding="utf-8"?>
<!-- Generated by IcoMoon.io -->
<!DOCTYPE svg PUBLIC "-//W3C//DTD SVG 1.1//EN" "http://www.w3.org/Graphics/SVG/1.1/DTD/svg11.dtd">
<svg version="1.1" xmlns="http://www.w3.org/2000/svg" xmlns:xlink="http://www.w3.org/1999/xlink" width="30" height="30" viewBox="0 0 35 35">
<path fill="#fff" d="M33.623 8.004c-.185-.268-.486-.434-.812-.447l-20.237-.872c-.58-.025-1.066.423-1.09 1-.026.58.422 1.066 1 1.092l18.867.812-3.71 11.574H11.13L8.15 4.924c-.066-.355-.31-.652-.647-.785L2.618 2.22c-.54-.21-1.146.054-1.358.592s.053 1.146.59 1.357l4.344 1.705L9.23 22.4c.092.497.524.857 1.03.857h.504l-1.15 3.193c-.096.268-.057.565.108.798.163.232.43.37.713.37h.807c-.5.556-.807 1.288-.807 2.093 0 1.733 1.41 3.142 3.14 3.142 1.732 0 3.14-1.408 3.14-3.14 0-.806-.306-1.538-.806-2.094h6.846c-.5.556-.806 1.288-.806 2.093 0 1.733 1.407 3.142 3.14 3.142 1.73 0 3.14-1.408 3.14-3.14 0-.806-.307-1.538-.806-2.094h.98c.482 0 .872-.39.872-.872s-.39-.873-.872-.873h-16.73l.943-2.617h15.786c.455 0 .857-.294.996-.727l4.36-13.61c.102-.308.05-.648-.137-.916zm-20.05 23.104c-.768 0-1.394-.626-1.394-1.396s.625-1.396 1.394-1.396c.77 0 1.396.626 1.396 1.396s-.626 1.396-1.396 1.396zm11.516 0c-.772 0-1.397.626-1.397-1.396s.626-1.396 1.396-1.396c.77 0 1.395.626 1.395 1.396s-.627 1.396-1.396 1.396z"></path>
</svg>